<svg width="80" height="80" xmlns="http://www.w3.org/2000/svg" xmlns:xlink="http://www.w3.org/1999/xlink" xml:space="preserve" overflow="hidden"><g transform="translate(-1031 -124)"><path d="M1031 124 1111 124 1111 204 1031 204Z" fill="#E7157B" fill-rule="evenodd"/><path d="M1084 163.963 1089 163.963 1089 161.96 1084 161.96 1084 163.963ZM1059 175.982 1064 175.982 1064 173.979 1059 173.979 1059 175.982ZM1049 175.982 1056 175.982 1056 173.979 1049 173.979 1049 175.982ZM1049 169.972 1061 169.972 1061 167.969 1049 167.969 1049 169.972ZM1049 157.954 1058 157.954 1058 155.951 1049 155.951 1049 157.954ZM1049 163.963 1082 163.963 1082 161.96 1049 161.96 1049 163.963ZM1068 185.997 1045 185.997 1045 151.945 1068 151.945 1068 159.957 1070 159.957 1070 150.943C1070 150.39 1069.55 149.942 1069 149.942L1044 149.942C1043.45 149.942 1043 150.39 1043 150.943L1043 186.999C1043 187.551 1043.45 188 1044 188L1069 188C1069.55 188 1070 187.551 1070 186.999L1070 166.968 1068 166.968 1068 185.997ZM1099 160.959C1099 167.43 1093.17 169.682 1090.09 169.968L1074 169.972 1074 167.969 1090 167.969C1090.19 167.946 1097 167.212 1097 160.959 1097 155.264 1091.86 154.108 1090.83 153.934 1090.32 153.847 1089.96 153.382 1090 152.863 1090.01 152.844 1090.01 152.826 1090.01 152.808 1089.95 149.59 1087.98 148.585 1087.13 148.3 1085.53 147.769 1083.75 148.277 1082.81 149.539 1082.59 149.836 1082.23 149.987 1081.86 149.931 1081.5 149.876 1081.19 149.625 1081.07 149.277 1080.45 147.536 1079.55 146.408 1078.29 145.153 1075.16 142.039 1070.91 141.178 1066.93 142.853 1064.84 143.733 1063.01 145.728 1061.92 148.327L1060.08 147.55C1061.37 144.474 1063.58 142.089 1066.15 141.007 1070.91 139.005 1075.97 140.026 1079.7 143.734 1080.77 144.807 1081.66 145.852 1082.35 147.204 1083.84 146.098 1085.86 145.767 1087.76 146.399 1090.19 147.209 1091.73 149.321 1091.97 152.129 1095.38 152.988 1099 155.712 1099 160.959L1099 160.959Z" fill="#FFFFFF" fill-rule="evenodd"/></g></svg>